<svg id="SvgjsSvg1011" width="288" height="288" xmlns="http://www.w3.org/2000/svg" version="1.1" xmlns:xlink="http://www.w3.org/1999/xlink" xmlns:svgjs="http://svgjs.com/svgjs"><defs id="SvgjsDefs1012"></defs><g id="SvgjsG1013"><svg xmlns="http://www.w3.org/2000/svg" width="288" height="288" viewBox="0 0 32 32"><path d="M6 14h6a2 2 0 0 0 2-2V6a2 2 0 0 0-2-2H6a2 2 0 0 0-2 2v6a2 2 0 0 0 2 2zm14 0h6a2 2 0 0 0 2-2V6a2 2 0 0 0-2-2h-6a2 2 0 0 0-2 2v6a2 2 0 0 0 2 2zM4 26a2 2 0 0 0 2 2h6a2 2 0 0 0 2-2v-6a2 2 0 0 0-2-2H6a2 2 0 0 0-2 2v6zm14 0a2 2 0 0 0 2 2h6a2 2 0 0 0 2-2v-6a2 2 0 0 0-2-2h-6a2 2 0 0 0-2 2v6z" fill="#f0d32f" class="color000 svgShape"></path></svg></g></svg>