<svg width="23" height="22" viewBox="0 0 23 22" fill="none" xmlns="http://www.w3.org/2000/svg">
<path d="M22.042 15.84C22.0028 15.807 17.4895 12.6544 16.2626 12.8707C15.674 12.9727 15.3379 13.3628 14.6642 14.1431C14.5557 14.2692 14.2949 14.5713 14.0922 14.7862C13.666 14.6509 13.2502 14.4862 12.848 14.2934C10.7722 13.31 9.09508 11.678 8.08451 9.658C7.88621 9.26671 7.71697 8.86209 7.57809 8.44727C7.79964 8.24927 8.11013 7.99553 8.24276 7.887C9.04158 7.23433 9.44325 6.90727 9.54725 6.3338C9.76052 5.1458 6.52907 0.7502 6.49516 0.7106C6.34847 0.506921 6.15709 0.337509 5.93488 0.214615C5.71266 0.0917205 5.46516 0.0184153 5.21027 0C3.90051 0 0.161133 4.72047 0.161133 5.5154C0.161133 5.5616 0.229711 10.2579 6.18091 16.1487C12.2286 21.9333 17.0539 22 17.1014 22C17.9183 22 22.7692 18.3612 22.7692 17.0867C22.7504 16.8394 22.6754 16.5994 22.5496 16.3838C22.4239 16.1682 22.2505 15.9824 22.042 15.84Z" fill="black"/>
</svg>
