<svg id="fax" xmlns="http://www.w3.org/2000/svg" width="16.651" height="16.651" viewBox="0 0 16.651 16.651">
  <path id="Path_102" data-name="Path 102" d="M201,.413V6.407h8.683V.413A.413.413,0,0,0,209.27,0h-7.856A.413.413,0,0,0,201,.413Zm2.078,1.077h2.285a.488.488,0,0,1,0,.976h-2.285a.488.488,0,1,1,0-.976Zm0,2.444h4.528a.488.488,0,0,1,0,.976h-4.528a.488.488,0,1,1,0-.976Z" transform="translate(-194.463 0)" fill="#9b9b9b"/>
  <path id="Path_103" data-name="Path 103" d="M167.244,227H158.3a1.3,1.3,0,0,0-1.3,1.3v6.667a1.3,1.3,0,0,0,1.3,1.3h8.943a1.3,1.3,0,0,0,1.3-1.3V228.3A1.3,1.3,0,0,0,167.244,227Zm-6.748,7.073h-.65a.488.488,0,1,1,0-.976h.65a.488.488,0,0,1,0,.976Zm0-1.951h-.65a.488.488,0,0,1,0-.976h.65a.488.488,0,0,1,0,.976Zm0-1.951h-.65a.488.488,0,0,1,0-.976h.65a.488.488,0,0,1,0,.976Zm2.6,3.9h-.65a.488.488,0,0,1,0-.976h.65a.488.488,0,1,1,0,.976Zm0-1.951h-.65a.488.488,0,0,1,0-.976h.65a.488.488,0,0,1,0,.976Zm0-1.951h-.65a.488.488,0,0,1,0-.976h.65a.488.488,0,0,1,0,.976Zm2.6,3.9h-.65a.488.488,0,1,1,0-.976h.65a.488.488,0,0,1,0,.976Zm0-1.951h-.65a.488.488,0,0,1,0-.976h.65a.488.488,0,0,1,0,.976Zm0-1.951h-.65a.488.488,0,0,1,0-.976h.65a.488.488,0,0,1,0,.976Z" transform="translate(-151.894 -219.618)" fill="#9b9b9b"/>
  <path id="Path_104" data-name="Path 104" d="M2.829,227H1.3A1.3,1.3,0,0,0,0,228.3v6.667a1.3,1.3,0,0,0,1.3,1.3H2.829a1.3,1.3,0,0,0,1.3-1.3V228.3A1.3,1.3,0,0,0,2.829,227Z" transform="translate(0 -219.618)" fill="#9b9b9b"/>
</svg>
