<svg xmlns="http://www.w3.org/2000/svg" width="12.606" height="12.633" viewBox="0 0 12.606 12.633">
  <g id="phone-call" transform="translate(-0.539)">
    <g id="Group_141" data-name="Group 141" transform="translate(0.539 0)">
      <path id="Path_101" data-name="Path 101" d="M12.815,9.271,11.052,7.508A1.173,1.173,0,0,0,9.1,7.949,1.2,1.2,0,0,1,7.715,8.7,5.436,5.436,0,0,1,4.441,5.431,1.141,1.141,0,0,1,5.2,4.045a1.173,1.173,0,0,0,.441-1.952L3.874.331a1.258,1.258,0,0,0-1.7,0l-1.2,1.2c-1.2,1.259.126,4.6,3.085,7.556s6.3,4.344,7.556,3.085l1.2-1.2A1.257,1.257,0,0,0,12.815,9.271Z" transform="translate(-0.539 0)" fill="#9b9b9b"/>
    </g>
  </g>
</svg>
