<svg xmlns="http://www.w3.org/2000/svg" width="18.723" height="17" viewBox="0 0 18.723 17"><defs><style>.a{fill:#0783ff;}</style></defs><g transform="translate(0 0)"><path class="a" d="M286.783,535.908c-2.414,0-4.829-.03-7.242.011a1.957,1.957,0,0,1-2.092-2.086c.017-3.229.008-6.459,0-9.688a.636.636,0,0,1,.281-.574q3.016-2.255,6.013-4.535a.369.369,0,0,1,.536.008c.711.555,1.44,1.086,2.152,1.641a.353.353,0,0,0,.488.018c.808-.551,1.629-1.083,2.434-1.636a.416.416,0,0,1,.574,0q2.96,2.248,5.937,4.473a.655.655,0,0,1,.3.594c-.01,3.208-.037,6.416.009,9.623a2,2,0,0,1-2.178,2.163C291.59,535.868,289.186,535.908,286.783,535.908Zm-7.459-6.518c0,1.446.006,2.891-.006,4.337,0,.261.081.334.335.333q4.354-.01,8.708,0c.266,0,.325-.083.324-.335-.008-2.913,0-5.827-.015-8.74a.656.656,0,0,0-.226-.453c-1.4-1.071-2.807-2.124-4.209-3.188a.316.316,0,0,0-.455.005q-2.089,1.588-4.194,3.154a.6.6,0,0,0-.267.547C279.329,526.5,279.324,527.945,279.324,529.391Zm11.238-2.829h1.871c0,.581,0,1.112,0,1.643,0,.18-.091.216-.245.214-.413-.005-.827.017-1.239-.009-.325-.02-.416.1-.395.411a7.963,7.963,0,0,1,0,1.075c-.02.3.06.429.389.405.4-.029.8,0,1.206-.008.207,0,.291.076.286.288-.011.434-.014.87,0,1.3.009.253-.1.313-.333.308-.5-.011-1,0-1.519,0v1.844h3.678c.02-.041.037-.06.037-.079q0-4.531,0-9.062a.431.431,0,0,0-.152-.3q-2.178-1.657-4.371-3.295c-.069-.052-.2-.107-.256-.075-.411.251-.809.522-1.242.807.12.107.187.175.262.231.537.406,1.066.824,1.618,1.208a.838.838,0,0,1,.413.806C290.54,525.013,290.562,525.752,290.562,526.562Z" transform="translate(-277.448 -518.925)"/><path class="a" d="M336.507,579.222c-.579,0-1.1.008-1.619-.009-.077,0-.214-.117-.216-.183-.018-.541-.01-1.082-.01-1.649h1.844Z" transform="translate(-327.173 -569.73)"/><path class="a" d="M306.2,577.228c.588,0,1.148-.007,1.708.01.057,0,.156.141.159.219.015.466.018.932,0,1.4a.32.32,0,0,1-.219.223c-.476.021-.954.018-1.43,0-.073,0-.2-.1-.2-.163C306.2,578.368,306.2,577.817,306.2,577.228Z" transform="translate(-302.439 -569.596)"/><path class="a" d="M306.976,607.619c-.929,0-.932,0-.928-.932,0-.3-.092-.726.064-.869.179-.163.587-.089.9-.092.913-.008.913,0,.913.9,0,.228-.009.456,0,.683.012.243-.094.331-.33.316C307.389,607.608,307.182,607.619,306.976,607.619Z" transform="translate(-302.282 -594.353)"/><path class="a" d="M336.506,606.735a5.561,5.561,0,0,1-.01.716.327.327,0,0,1-.218.225c-.466.022-.935.022-1.4,0a.326.326,0,0,1-.231-.218c-.022-.477-.022-.957,0-1.434a.324.324,0,0,1,.224-.222c.467-.021.935-.007,1.4-.012.186,0,.247.08.238.259C336.5,606.278,336.505,606.507,336.506,606.735Z" transform="translate(-327.145 -594.422)"/></g></svg>