<svg xmlns="http://www.w3.org/2000/svg" width="17.578" height="20" viewBox="0 0 17.578 20"><defs><style>.a{fill:#0783ff;}</style></defs><g transform="translate(0 0)"><path class="a" d="M440.108,233.286h4.6a1.646,1.646,0,0,1,1.791,1.768c.009,1.417.012,2.833-.005,4.249,0,.309.08.391.388.387,1.346-.017,2.693-.013,4.039,0,.258,0,.338-.07.338-.333q-.011-6.6,0-13.2a.317.317,0,0,0-.277-.359c-2-.592-3.994-1.2-5.995-1.783-.441-.129-.9-.211-1.348-.3-.276-.055-.35.078-.349.352.01,2.38.006,4.76.006,7.14,0,.48,0,.48-.472.479h-1.1c-.012-.108-.029-.2-.029-.283q0-3.744,0-7.489a1.639,1.639,0,0,1,1.8-1.814,9.686,9.686,0,0,1,2.765.621c.59.15,1.169.345,1.843.546,0-.447-.007-.835,0-1.222a.742.742,0,0,1,.559-.713.69.69,0,0,1,.808.258,1.733,1.733,0,0,1,.223.75,9,9,0,0,1,.006,1.148c-.007.193.043.291.247.341.42.1.832.239,1.3.378,0-.536-.006-1,0-1.46a5.394,5.394,0,0,1,.054-.761.752.752,0,0,1,.82-.679.775.775,0,0,1,.736.782c.019.452.006.906.006,1.358,0,1.033.008,2.067-.005,3.1,0,.259.071.338.334.336a11.546,11.546,0,0,1,1.561.059,1.47,1.47,0,0,1,1.263,1.258,3.786,3.786,0,0,1,.05.623c0,4.006,0,8.011.009,12.017,0,.339-.071.456-.438.455q-8.34-.019-16.681-.009h-.438c-.008-.145-.02-.257-.02-.368q0-4.545,0-9.091c0-.581.273-.91.761-.922.5-.013.819.321.839.9.008.243,0,.488,0,.731S440.108,233,440.108,233.286Zm14.351-4.008c0-.8,0-.8-.8-.8s-.788,0-.788.779c0,.824,0,.824.8.824C454.458,230.081,454.458,230.081,454.458,229.278Zm-.809,4.008c.809,0,.809,0,.809-.814,0-.789,0-.789-.775-.789-.812,0-.812,0-.812.824C452.872,233.286,452.872,233.286,453.649,233.286Zm-10.353,1.59c0,.5-.009.948.009,1.4a.285.285,0,0,0,.2.2,9.384,9.384,0,0,0,1.142,0,.351.351,0,0,0,.243-.237,9.243,9.243,0,0,0,0-1.142.29.29,0,0,0-.2-.2C444.243,234.867,443.794,234.876,443.3,234.876Zm9.576.022c0,.473-.013.9.011,1.327a.342.342,0,0,0,.227.242,8.349,8.349,0,0,0,1.111,0,.316.316,0,0,0,.227-.2c.022-.448.011-.9.011-1.368Zm-9.576,3.184c0,.493.006.931,0,1.368,0,.187.076.24.249.236q.537-.011,1.074,0c.208,0,.29-.084.285-.291-.008-.358.011-.717-.012-1.074a.318.318,0,0,0-.2-.23C444.238,238.071,443.789,238.082,443.3,238.082Zm11.162.024h-1.586c0,.473-.009.923.009,1.371a.292.292,0,0,0,.2.2,10.21,10.21,0,0,0,1.146,0,.314.314,0,0,0,.217-.214C454.469,239.023,454.458,238.583,454.458,238.106Zm-14.338-1.627c.475,0,.912.012,1.348-.011a.326.326,0,0,0,.214-.232,10.947,10.947,0,0,0,0-1.143c0-.073-.1-.2-.161-.2-.467-.017-.935-.01-1.4-.01Zm0,3.206c.471,0,.907.012,1.342-.011a.325.325,0,0,0,.221-.225,10.986,10.986,0,0,0,0-1.143c0-.075-.1-.208-.154-.21-.468-.017-.936-.01-1.413-.01Z" transform="translate(-438.505 -221.296)"/><path class="a" d="M484.261,262.808c0-.5-.009-.949.01-1.4a.292.292,0,0,1,.206-.2,10.073,10.073,0,0,1,1.146,0,.324.324,0,0,1,.228.216,9.14,9.14,0,0,1,0,1.146.322.322,0,0,1-.222.22C485.191,262.82,484.753,262.808,484.261,262.808Z" transform="translate(-477.867 -255.625)"/><path class="a" d="M507.217,262.8c0-.5-.009-.963.01-1.422,0-.063.145-.169.227-.173a8.932,8.932,0,0,1,1.111,0,.35.35,0,0,1,.239.24,7.53,7.53,0,0,1,0,1.11.347.347,0,0,1-.245.23C508.133,262.814,507.705,262.8,507.217,262.8Z" transform="translate(-497.617 -255.617)"/><path class="a" d="M484.261,285.756c0-.5-.009-.945.009-1.394a.292.292,0,0,1,.2-.2,10.052,10.052,0,0,1,1.146,0,.325.325,0,0,1,.232.213,9.138,9.138,0,0,1,0,1.146.321.321,0,0,1-.219.223C485.195,285.768,484.756,285.756,484.261,285.756Z" transform="translate(-477.867 -275.367)"/><path class="a" d="M507.211,285.748c0-.5-.009-.957.01-1.416,0-.065.142-.174.222-.178a8.926,8.926,0,0,1,1.111,0,.35.35,0,0,1,.245.234,8.117,8.117,0,0,1,0,1.111c-.005.086-.131.232-.207.236C508.148,285.76,507.7,285.748,507.211,285.748Z" transform="translate(-497.611 -275.359)"/><path class="a" d="M507.2,330.005c.5,0,.968-.007,1.437.009.057,0,.154.132.157.207a9.985,9.985,0,0,1,0,1.142.351.351,0,0,1-.25.23,8.367,8.367,0,0,1-1.107,0,.31.31,0,0,1-.222-.2C507.19,330.943,507.2,330.495,507.2,330.005Z" transform="translate(-497.602 -314.818)"/><path class="a" d="M507.219,307.925c0-.793,0-.793.807-.793s.8,0,.8.783c0,.805,0,.805-.807.805S507.219,308.721,507.219,307.925Z" transform="translate(-497.62 -295.141)"/></g></svg>