<svg xmlns="http://www.w3.org/2000/svg" width="21.35" height="17.213" viewBox="0 0 21.35 17.213"><defs><style>.a{fill:#0783ff;}</style></defs><g transform="translate(0)"><path class="a" d="M207.232,242.942h4.288a3.327,3.327,0,0,1,3.259,2.358c.485,1.429.976,2.855,1.489,4.273a1.623,1.623,0,0,0,.447.61,3.417,3.417,0,0,1,1.16,2.629q.018,2.77,0,5.54a1.655,1.655,0,0,1-1.314,1.759,1.615,1.615,0,0,1-1.918-1.269,6.8,6.8,0,0,1-.064-1.03c0-.249-.075-.343-.327-.328-3.364.2-6.732.24-10.1.174-1.319-.026-2.636-.108-3.954-.174-.265-.013-.362.073-.35.344s-.035.545-.039.818a1.629,1.629,0,0,1-3.254-.127c-.022-1.977-.033-3.956.005-5.932a3.159,3.159,0,0,1,1.263-2.5,1.191,1.191,0,0,0,.331-.525q.759-2.133,1.492-4.275a3.318,3.318,0,0,1,3.263-2.349Zm6.2,6.188c.545-.009.8-.381.641-.846-.3-.877-.6-1.753-.923-2.622a1.543,1.543,0,0,0-1.462-1.064q-4.484-.007-8.968,0a1.387,1.387,0,0,0-1.362.873c-.389.956-.717,1.938-1.044,2.918a.549.549,0,0,0,.546.734,3.482,3.482,0,0,0,.5-.044c.98-.109,1.958-.277,2.941-.315,1.58-.061,3.164-.082,4.744-.036,1.27.037,2.536.2,3.8.306C213.072,249.055,213.293,249.106,213.436,249.129Zm-6.2,2.835c-.8,0-1.594,0-2.39,0a.8.8,0,0,0-.905.788.836.836,0,0,0,.907.843q2.354.009,4.709,0a.807.807,0,0,0,.913-.859c-.012-.478-.355-.771-.915-.773C208.78,251.962,208.007,251.965,207.234,251.965Zm6.92,2.427a1.214,1.214,0,1,0-1.211-1.236A1.219,1.219,0,0,0,214.154,254.392Zm-13.926,0a1.214,1.214,0,1,0-1.219-1.224A1.222,1.222,0,0,0,200.228,254.393Z" transform="translate(-196.534 -242.942)"/></g></svg>