<svg width="99" height="89" viewBox="0 0 99 89" fill="none" xmlns="http://www.w3.org/2000/svg">
<ellipse cx="3.21601" cy="85.1006" rx="3.78034" ry="3.21601" transform="rotate(-90 3.21601 85.1006)" fill="white"/>
<ellipse cx="3.21601" cy="57.9937" rx="3.78034" ry="3.21601" transform="rotate(-90 3.21601 57.9937)" fill="white"/>
<ellipse cx="3.21601" cy="30.8868" rx="3.78034" ry="3.21601" transform="rotate(-90 3.21601 30.8868)" fill="white"/>
<ellipse cx="3.21601" cy="3.78033" rx="3.78034" ry="3.21601" transform="rotate(-90 3.21601 3.78033)" fill="white"/>
<ellipse cx="26.2763" cy="85.1004" rx="3.78034" ry="3.21601" transform="rotate(-90 26.2763 85.1004)" fill="white"/>
<ellipse cx="26.2763" cy="57.9937" rx="3.78034" ry="3.21601" transform="rotate(-90 26.2763 57.9937)" fill="white"/>
<ellipse cx="26.2763" cy="30.8868" rx="3.78034" ry="3.21601" transform="rotate(-90 26.2763 30.8868)" fill="white"/>
<ellipse cx="26.2763" cy="3.78033" rx="3.78034" ry="3.21601" transform="rotate(-90 26.2763 3.78033)" fill="white"/>
<ellipse cx="49.3364" cy="85.1004" rx="3.78034" ry="3.21601" transform="rotate(-90 49.3364 85.1004)" fill="white"/>
<ellipse cx="49.3364" cy="57.9937" rx="3.78034" ry="3.21601" transform="rotate(-90 49.3364 57.9937)" fill="white"/>
<ellipse cx="49.3364" cy="30.887" rx="3.78034" ry="3.21601" transform="rotate(-90 49.3364 30.887)" fill="white"/>
<ellipse cx="49.3364" cy="3.78033" rx="3.78034" ry="3.21601" transform="rotate(-90 49.3364 3.78033)" fill="white"/>
<ellipse cx="72.3967" cy="85.1004" rx="3.78034" ry="3.21601" transform="rotate(-90 72.3967 85.1004)" fill="white"/>
<ellipse cx="72.3967" cy="57.9937" rx="3.78034" ry="3.21601" transform="rotate(-90 72.3967 57.9937)" fill="white"/>
<ellipse cx="72.3967" cy="30.887" rx="3.78034" ry="3.21601" transform="rotate(-90 72.3967 30.887)" fill="white"/>
<ellipse cx="72.3967" cy="3.78033" rx="3.78034" ry="3.21601" transform="rotate(-90 72.3967 3.78033)" fill="white"/>
<ellipse cx="95.457" cy="85.1004" rx="3.78034" ry="3.21601" transform="rotate(-90 95.457 85.1004)" fill="white"/>
<ellipse cx="95.457" cy="57.9937" rx="3.78034" ry="3.21601" transform="rotate(-90 95.457 57.9937)" fill="white"/>
<ellipse cx="95.457" cy="30.8868" rx="3.78034" ry="3.21601" transform="rotate(-90 95.457 30.8868)" fill="white"/>
<ellipse cx="95.457" cy="3.78057" rx="3.78034" ry="3.21601" transform="rotate(-90 95.457 3.78057)" fill="white"/>
</svg>
